<svg xmlns="http://www.w3.org/2000/svg" xmlns:xlink="http://www.w3.org/1999/xlink" width="500" zoomAndPan="magnify" viewBox="0 0 375 374.999991" height="500" preserveAspectRatio="xMidYMid meet" version="1.2"><defs/><g id="b9c8ec6b8c"><g style="fill:#000000;fill-opacity:1;"><g transform="translate(70.717445, 199.348712)"><path style="stroke:none" d="M 30.0625 -0.21875 C 30.207031 -0.21875 30.28125 -0.144531 30.28125 0 C 30.28125 0.144531 30.207031 0.21875 30.0625 0.21875 C 28.925781 0.175781 27.875 -0.128906 26.90625 -0.703125 C 25.945312 -1.285156 25.195312 -2.070312 24.65625 -3.0625 L 17.65625 -15.140625 C 17.03125 -16.265625 16.15625 -17.144531 15.03125 -17.78125 C 13.90625 -18.425781 12.703125 -18.75 11.421875 -18.75 L 5.90625 -18.75 L 5.90625 0 C 5.90625 0.144531 5.832031 0.21875 5.6875 0.21875 L 4.59375 0.21875 C 4.445312 0.21875 4.375 0.144531 4.375 0 L 4.375 -37.984375 C 4.375 -38.171875 4.445312 -38.265625 4.59375 -38.265625 L 16.390625 -38.265625 C 18.210938 -38.265625 19.851562 -37.816406 21.3125 -36.921875 C 22.769531 -36.023438 23.9375 -34.847656 24.8125 -33.390625 C 25.6875 -31.929688 26.125 -30.289062 26.125 -28.46875 C 26.125 -26.6875 25.6875 -25.066406 24.8125 -23.609375 C 23.9375 -22.148438 22.769531 -20.972656 21.3125 -20.078125 C 19.851562 -19.191406 18.210938 -18.75 16.390625 -18.75 L 14.375 -18.75 C 16.8125 -17.976562 18.671875 -16.5 19.953125 -14.3125 L 26.890625 -2.234375 C 27.578125 -0.992188 28.632812 -0.320312 30.0625 -0.21875 Z M 5.90625 -37.765625 L 5.90625 -19.234375 L 15.796875 -19.234375 C 17.398438 -19.234375 18.859375 -19.648438 20.171875 -20.484375 C 21.484375 -21.328125 22.53125 -22.453125 23.3125 -23.859375 C 24.09375 -25.265625 24.484375 -26.800781 24.484375 -28.46875 C 24.484375 -30.1875 24.09375 -31.742188 23.3125 -33.140625 C 22.53125 -34.546875 21.484375 -35.664062 20.171875 -36.5 C 18.859375 -37.34375 17.398438 -37.765625 15.796875 -37.765625 Z M 5.90625 -37.765625 "/></g></g><g style="fill:#000000;fill-opacity:1;"><g transform="translate(97.930449, 199.348712)"><path style="stroke:none" d="M 37.328125 -7.546875 C 37.367188 -7.617188 37.425781 -7.65625 37.5 -7.65625 C 37.53125 -7.65625 37.582031 -7.632812 37.65625 -7.59375 C 37.769531 -7.488281 37.789062 -7.378906 37.71875 -7.265625 C 35.851562 -4.785156 33.546875 -2.863281 30.796875 -1.5 C 28.046875 -0.132812 25.140625 0.546875 22.078125 0.546875 L 21.53125 0.546875 C 18.90625 0.472656 16.4375 -0.0703125 14.125 -1.09375 C 11.8125 -2.113281 9.78125 -3.515625 8.03125 -5.296875 C 6.28125 -7.085938 4.921875 -9.15625 3.953125 -11.5 C 2.992188 -13.851562 2.515625 -16.359375 2.515625 -19.015625 C 2.515625 -21.679688 2.992188 -24.175781 3.953125 -26.5 C 4.921875 -28.832031 6.28125 -30.890625 8.03125 -32.671875 C 9.78125 -34.460938 11.8125 -35.878906 14.125 -36.921875 C 16.4375 -37.960938 18.90625 -38.5 21.53125 -38.53125 L 22.078125 -38.53125 C 23.941406 -38.53125 25.742188 -38.273438 27.484375 -37.765625 L 27.59375 -37.765625 C 27.664062 -37.734375 27.796875 -37.679688 27.984375 -37.609375 L 28.140625 -37.609375 C 32.046875 -36.328125 35.238281 -34.03125 37.71875 -30.71875 C 37.789062 -30.601562 37.769531 -30.507812 37.65625 -30.4375 L 36.78125 -29.515625 L 11.15625 -3.875 C 14.175781 -1.363281 17.65625 -0.0546875 21.59375 0.046875 L 22.078125 0.046875 C 25.066406 0.0859375 27.910156 -0.5625 30.609375 -1.90625 C 33.304688 -3.257812 35.546875 -5.140625 37.328125 -7.546875 Z M 4.203125 -19.015625 C 4.171875 -16.171875 4.726562 -13.457031 5.875 -10.875 C 7.019531 -8.289062 8.648438 -6.050781 10.765625 -4.15625 L 36.34375 -29.734375 C 35.539062 -31.515625 34.410156 -33.050781 32.953125 -34.34375 C 31.492188 -35.644531 29.835938 -36.585938 27.984375 -37.171875 L 27.875 -37.171875 C 27.6875 -37.242188 27.554688 -37.28125 27.484375 -37.28125 L 27.375 -37.328125 C 25.632812 -37.835938 23.867188 -38.09375 22.078125 -38.09375 L 21.59375 -38.09375 C 19.144531 -38.019531 16.863281 -37.472656 14.75 -36.453125 C 12.644531 -35.429688 10.804688 -34.054688 9.234375 -32.328125 C 7.671875 -30.597656 6.441406 -28.59375 5.546875 -26.3125 C 4.648438 -24.039062 4.203125 -21.609375 4.203125 -19.015625 Z M 4.203125 -19.015625 "/></g></g><g style="fill:#000000;fill-opacity:1;"><g transform="translate(133.50431, 199.348712)"><path style="stroke:none" d="M 4.59375 0.21875 C 4.445312 0.21875 4.375 0.144531 4.375 0 L 4.375 -37.984375 C 4.375 -38.171875 4.445312 -38.265625 4.59375 -38.265625 L 5.6875 -38.265625 C 5.832031 -38.265625 5.90625 -38.171875 5.90625 -37.984375 L 5.90625 -17.046875 C 9.289062 -15.773438 12.804688 -15.140625 16.453125 -15.140625 C 19.984375 -15.140625 23.410156 -15.738281 26.734375 -16.9375 L 26.734375 -37.984375 C 26.734375 -38.171875 26.804688 -38.265625 26.953125 -38.265625 L 28.03125 -38.265625 C 28.175781 -38.265625 28.25 -38.171875 28.25 -37.984375 L 28.25 0 C 28.25 0.144531 28.175781 0.21875 28.03125 0.21875 L 26.953125 0.21875 C 26.804688 0.21875 26.734375 0.144531 26.734375 0 L 26.734375 -16.453125 C 23.410156 -15.242188 19.984375 -14.660156 16.453125 -14.703125 C 12.847656 -14.660156 9.332031 -15.28125 5.90625 -16.5625 L 5.90625 0 C 5.90625 0.144531 5.832031 0.21875 5.6875 0.21875 Z M 4.59375 0.21875 "/></g></g><g style="fill:#000000;fill-opacity:1;"><g transform="translate(162.083468, 199.348712)"><path style="stroke:none" d="M 22.796875 -27.328125 C 25.378906 -27.222656 27.800781 -26.628906 30.0625 -25.546875 C 32.320312 -24.472656 34.289062 -23.050781 35.96875 -21.28125 C 37.644531 -19.519531 38.953125 -17.484375 39.890625 -15.171875 C 40.835938 -12.859375 41.3125 -10.40625 41.3125 -7.8125 C 41.351562 -5.039062 40.8125 -2.398438 39.6875 0.109375 C 39.644531 0.179688 39.570312 0.21875 39.46875 0.21875 L 38.375 0.21875 C 38.332031 0.21875 38.296875 0.21875 38.265625 0.21875 C 38.222656 0.21875 38.203125 0.195312 38.203125 0.15625 C 38.203125 0.15625 38.1875 0.15625 38.15625 0.15625 C 38.15625 0.125 38.15625 0.109375 38.15625 0.109375 C 38.15625 0.140625 38.15625 0.140625 38.15625 0.109375 C 38.15625 0.109375 38.132812 0.0859375 38.09375 0.046875 C 38.09375 0.015625 38.09375 0 38.09375 0 C 38.09375 -0.03125 38.113281 -0.0664062 38.15625 -0.109375 C 39.175781 -2.546875 39.664062 -5.113281 39.625 -7.8125 C 39.625 -10.332031 39.195312 -12.710938 38.34375 -14.953125 C 37.488281 -17.191406 36.296875 -19.1875 34.765625 -20.9375 C 33.234375 -22.6875 31.4375 -24.078125 29.375 -25.109375 C 27.320312 -26.148438 25.109375 -26.742188 22.734375 -26.890625 L 20.828125 -26.890625 C 20.640625 -26.859375 20.492188 -26.84375 20.390625 -26.84375 L 19.953125 -26.78125 C 19.660156 -26.75 19.367188 -26.710938 19.078125 -26.671875 C 18.816406 -26.640625 18.539062 -26.585938 18.25 -26.515625 C 18.21875 -26.515625 18.203125 -26.515625 18.203125 -26.515625 C 17.617188 -26.367188 17.070312 -26.222656 16.5625 -26.078125 C 16.300781 -26.003906 16.023438 -25.894531 15.734375 -25.75 C 15.585938 -25.707031 15.441406 -25.660156 15.296875 -25.609375 C 15.148438 -25.554688 15.023438 -25.492188 14.921875 -25.421875 C 14.628906 -25.273438 14.375 -25.144531 14.15625 -25.03125 C 13.789062 -24.882812 13.390625 -24.664062 12.953125 -24.375 L 12.625 -24.21875 C 12.550781 -24.144531 12.425781 -24.050781 12.25 -23.9375 C 12.175781 -23.863281 12.066406 -23.789062 11.921875 -23.71875 C 11.078125 -23.101562 10.289062 -22.429688 9.5625 -21.703125 C 9.457031 -21.585938 9.367188 -21.515625 9.296875 -21.484375 C 9.035156 -21.191406 8.796875 -20.914062 8.578125 -20.65625 C 8.472656 -20.507812 8.382812 -20.382812 8.3125 -20.28125 C 8.3125 -20.28125 8.289062 -20.28125 8.25 -20.28125 C 8.175781 -20.164062 8.125 -20.070312 8.09375 -20 L 8.03125 -20 C 8.03125 -19.96875 8.015625 -19.929688 7.984375 -19.890625 L 7.765625 -19.625 C 7.429688 -19.1875 7.101562 -18.710938 6.78125 -18.203125 C 6.707031 -18.054688 6.632812 -17.914062 6.5625 -17.78125 C 6.488281 -17.65625 6.414062 -17.539062 6.34375 -17.4375 C 6.125 -17.03125 5.921875 -16.628906 5.734375 -16.234375 C 5.554688 -15.796875 5.375 -15.359375 5.1875 -14.921875 L 5.078125 -14.59375 C 5.046875 -14.476562 5.007812 -14.332031 4.96875 -14.15625 C 4.894531 -14.007812 4.859375 -13.898438 4.859375 -13.828125 C 4.828125 -13.785156 4.8125 -13.734375 4.8125 -13.671875 L 4.75 -13.5625 C 4.71875 -13.414062 4.679688 -13.273438 4.640625 -13.140625 C 4.609375 -13.015625 4.570312 -12.898438 4.53125 -12.796875 C 4.457031 -12.535156 4.40625 -12.257812 4.375 -11.96875 C 4.332031 -11.9375 4.296875 -11.8125 4.265625 -11.59375 L 4.265625 -11.53125 C 4.191406 -11.019531 4.117188 -10.566406 4.046875 -10.171875 C 4.003906 -9.878906 3.984375 -9.566406 3.984375 -9.234375 C 3.953125 -8.722656 3.9375 -8.25 3.9375 -7.8125 C 3.9375 -7.34375 3.953125 -6.851562 3.984375 -6.34375 C 3.984375 -6.050781 4.003906 -5.757812 4.046875 -5.46875 C 4.078125 -5.351562 4.09375 -5.242188 4.09375 -5.140625 C 4.132812 -4.804688 4.191406 -4.457031 4.265625 -4.09375 L 4.265625 -4.046875 C 4.296875 -3.859375 4.332031 -3.726562 4.375 -3.65625 C 4.445312 -3.332031 4.5 -3.0625 4.53125 -2.84375 C 4.570312 -2.726562 4.609375 -2.609375 4.640625 -2.484375 C 4.679688 -2.359375 4.71875 -2.222656 4.75 -2.078125 L 4.8125 -1.96875 C 4.8125 -1.851562 4.828125 -1.796875 4.859375 -1.796875 C 4.859375 -1.691406 4.894531 -1.566406 4.96875 -1.421875 C 5.007812 -1.304688 5.046875 -1.175781 5.078125 -1.03125 L 5.1875 -0.65625 C 5.257812 -0.46875 5.351562 -0.285156 5.46875 -0.109375 C 5.46875 -0.0664062 5.46875 -0.03125 5.46875 0 C 5.46875 0.03125 5.46875 0.046875 5.46875 0.046875 C 5.46875 0.046875 5.445312 0.0664062 5.40625 0.109375 C 5.40625 0.140625 5.40625 0.140625 5.40625 0.109375 C 5.445312 0.109375 5.445312 0.125 5.40625 0.15625 C 5.40625 0.15625 5.390625 0.15625 5.359375 0.15625 C 5.316406 0.195312 5.316406 0.21875 5.359375 0.21875 C 5.316406 0.21875 5.296875 0.21875 5.296875 0.21875 C 5.296875 0.21875 5.28125 0.21875 5.25 0.21875 L 4.09375 0.21875 C 4.019531 0.21875 3.945312 0.179688 3.875 0.109375 C 2.78125 -2.398438 2.234375 -5.039062 2.234375 -7.8125 C 2.234375 -10.40625 2.707031 -12.847656 3.65625 -15.140625 C 4.601562 -17.429688 5.914062 -19.46875 7.59375 -21.25 C 9.269531 -23.039062 11.238281 -24.460938 13.5 -25.515625 C 15.757812 -26.578125 18.179688 -27.179688 20.765625 -27.328125 L 21.8125 -27.375 Z M 19.78125 -29.78125 C 16.976562 -30.039062 14.363281 -30.878906 11.9375 -32.296875 C 9.519531 -33.722656 7.507812 -35.566406 5.90625 -37.828125 C 5.832031 -37.898438 5.8125 -37.988281 5.84375 -38.09375 C 5.882812 -38.164062 5.957031 -38.203125 6.0625 -38.203125 L 7 -38.203125 C 7.070312 -38.203125 7.144531 -38.1875 7.21875 -38.15625 C 7.21875 -38.15625 7.21875 -38.132812 7.21875 -38.09375 C 7.25 -38.09375 7.265625 -38.09375 7.265625 -38.09375 C 7.335938 -37.988281 7.410156 -37.878906 7.484375 -37.765625 C 7.554688 -37.660156 7.648438 -37.535156 7.765625 -37.390625 L 8.03125 -37.0625 C 8.070312 -36.988281 8.109375 -36.921875 8.140625 -36.859375 C 8.179688 -36.804688 8.238281 -36.765625 8.3125 -36.734375 C 8.34375 -36.617188 8.429688 -36.507812 8.578125 -36.40625 C 8.648438 -36.289062 8.722656 -36.179688 8.796875 -36.078125 C 8.835938 -36.078125 8.863281 -36.054688 8.875 -36.015625 C 8.894531 -35.984375 8.90625 -35.96875 8.90625 -35.96875 C 9.019531 -35.820312 9.148438 -35.691406 9.296875 -35.578125 C 9.367188 -35.503906 9.457031 -35.414062 9.5625 -35.3125 C 9.632812 -35.195312 9.71875 -35.101562 9.8125 -35.03125 C 9.90625 -34.957031 10.003906 -34.867188 10.109375 -34.765625 C 10.179688 -34.691406 10.253906 -34.617188 10.328125 -34.546875 C 10.691406 -34.210938 11.019531 -33.9375 11.3125 -33.71875 C 11.457031 -33.613281 11.585938 -33.523438 11.703125 -33.453125 C 12.023438 -33.234375 12.367188 -32.992188 12.734375 -32.734375 C 12.804688 -32.703125 12.867188 -32.664062 12.921875 -32.625 C 12.984375 -32.59375 13.050781 -32.554688 13.125 -32.515625 C 13.195312 -32.484375 13.304688 -32.410156 13.453125 -32.296875 C 13.597656 -32.222656 13.722656 -32.171875 13.828125 -32.140625 L 13.828125 -32.078125 C 14.078125 -31.972656 14.3125 -31.863281 14.53125 -31.75 C 14.570312 -31.75 14.59375 -31.734375 14.59375 -31.703125 C 14.695312 -31.660156 14.8125 -31.613281 14.9375 -31.5625 C 15.070312 -31.507812 15.191406 -31.460938 15.296875 -31.421875 C 15.628906 -31.273438 15.921875 -31.164062 16.171875 -31.09375 C 16.460938 -30.988281 16.71875 -30.898438 16.9375 -30.828125 C 17.269531 -30.710938 17.5625 -30.617188 17.8125 -30.546875 C 17.957031 -30.546875 18.085938 -30.53125 18.203125 -30.5 C 18.421875 -30.457031 18.710938 -30.398438 19.078125 -30.328125 C 19.328125 -30.296875 19.617188 -30.257812 19.953125 -30.21875 L 20.0625 -30.21875 C 20.164062 -30.1875 20.253906 -30.171875 20.328125 -30.171875 L 20.5 -30.171875 C 20.601562 -30.171875 20.710938 -30.148438 20.828125 -30.109375 L 22.796875 -30.109375 C 25.347656 -30.296875 27.75 -31.007812 30 -32.25 C 32.257812 -33.488281 34.15625 -35.144531 35.6875 -37.21875 C 35.90625 -37.507812 36.109375 -37.800781 36.296875 -38.09375 C 36.328125 -38.132812 36.363281 -38.15625 36.40625 -38.15625 C 36.40625 -38.1875 36.40625 -38.203125 36.40625 -38.203125 C 36.4375 -38.203125 36.472656 -38.203125 36.515625 -38.203125 C 36.546875 -38.203125 36.546875 -38.203125 36.515625 -38.203125 L 37.5 -38.203125 C 37.601562 -38.203125 37.675781 -38.164062 37.71875 -38.09375 C 37.75 -37.988281 37.75 -37.898438 37.71875 -37.828125 C 35.96875 -35.421875 33.789062 -33.492188 31.1875 -32.046875 C 28.582031 -30.609375 25.785156 -29.816406 22.796875 -29.671875 L 21.8125 -29.625 L 20.765625 -29.671875 C 20.734375 -29.671875 20.679688 -29.671875 20.609375 -29.671875 C 20.535156 -29.671875 20.460938 -29.691406 20.390625 -29.734375 C 20.316406 -29.734375 20.207031 -29.734375 20.0625 -29.734375 L 19.890625 -29.734375 C 19.890625 -29.734375 19.878906 -29.738281 19.859375 -29.75 C 19.847656 -29.769531 19.820312 -29.78125 19.78125 -29.78125 Z M 19.78125 -29.78125 "/></g></g><g style="fill:#000000;fill-opacity:1;"><g transform="translate(201.591848, 199.348712)"><path style="stroke:none" d="M 15.734375 0.21875 C 13.554688 0.21875 11.570312 -0.304688 9.78125 -1.359375 C 8 -2.421875 6.578125 -3.84375 5.515625 -5.625 C 4.460938 -7.414062 3.9375 -9.40625 3.9375 -11.59375 L 3.9375 -37.984375 C 3.9375 -38.171875 4.007812 -38.265625 4.15625 -38.265625 L 5.25 -38.265625 C 5.394531 -38.265625 5.46875 -38.171875 5.46875 -37.984375 L 5.46875 -11.59375 C 5.46875 -9.582031 5.945312 -7.753906 6.90625 -6.109375 C 7.875 -4.472656 9.175781 -3.171875 10.8125 -2.203125 C 12.457031 -1.242188 14.28125 -0.765625 16.28125 -0.765625 C 18.03125 -0.765625 19.660156 -1.164062 21.171875 -1.96875 C 22.691406 -2.769531 23.960938 -3.851562 24.984375 -5.21875 C 26.003906 -6.582031 26.660156 -8.140625 26.953125 -9.890625 L 26.953125 -9.953125 C 26.984375 -10.097656 27 -10.242188 27 -10.390625 C 27 -10.421875 27 -10.4375 27 -10.4375 C 27.039062 -10.625 27.0625 -10.804688 27.0625 -10.984375 C 27.0625 -11.203125 27.0625 -11.40625 27.0625 -11.59375 L 27.0625 -37.984375 C 27.0625 -38.171875 27.148438 -38.265625 27.328125 -38.265625 C 27.472656 -38.265625 27.546875 -38.171875 27.546875 -37.984375 L 27.546875 -11.59375 C 27.546875 -11.375 27.546875 -11.171875 27.546875 -10.984375 C 27.503906 -10.804688 27.484375 -10.609375 27.484375 -10.390625 C 27.453125 -10.203125 27.414062 -10.019531 27.375 -9.84375 C 27.09375 -7.90625 26.40625 -6.179688 25.3125 -4.671875 C 24.21875 -3.160156 22.832031 -1.96875 21.15625 -1.09375 C 19.476562 -0.21875 17.671875 0.21875 15.734375 0.21875 Z M 15.734375 0.21875 "/></g></g><g style="fill:#000000;fill-opacity:1;"><g transform="translate(228.968795, 199.348712)"><path style="stroke:none" d="M 4.046875 -17.328125 C 4.078125 -17.253906 4.09375 -17.179688 4.09375 -17.109375 C 3.945312 -16.234375 3.984375 -15.300781 4.203125 -14.3125 C 4.421875 -13.332031 4.945312 -12.382812 5.78125 -11.46875 C 6.625 -10.5625 7.957031 -9.800781 9.78125 -9.1875 C 11.207031 -8.707031 12.664062 -8.46875 14.15625 -8.46875 C 14.300781 -8.46875 14.484375 -8.488281 14.703125 -8.53125 C 14.953125 -8.53125 15.132812 -8.53125 15.25 -8.53125 C 17.03125 -8.675781 18.628906 -9.117188 20.046875 -9.859375 C 21.472656 -10.609375 22.597656 -11.554688 23.421875 -12.703125 C 24.242188 -13.847656 24.65625 -15.113281 24.65625 -16.5 C 24.65625 -17.78125 24.289062 -18.972656 23.5625 -20.078125 C 22.832031 -21.191406 21.8125 -22.132812 20.5 -22.90625 L 7.109375 -30.65625 C 5.609375 -31.53125 4.4375 -32.601562 3.59375 -33.875 C 2.757812 -35.15625 2.34375 -36.523438 2.34375 -37.984375 C 2.34375 -38.023438 2.363281 -38.082031 2.40625 -38.15625 C 2.4375 -38.1875 2.488281 -38.203125 2.5625 -38.203125 L 3.4375 -38.203125 C 3.582031 -38.203125 3.65625 -38.128906 3.65625 -37.984375 C 3.914062 -35.617188 5.300781 -33.707031 7.8125 -32.25 L 21.203125 -24.484375 C 22.703125 -23.648438 23.867188 -22.582031 24.703125 -21.28125 C 25.546875 -19.988281 25.96875 -18.613281 25.96875 -17.15625 C 25.96875 -15.59375 25.5 -14.144531 24.5625 -12.8125 C 23.632812 -11.488281 22.359375 -10.40625 20.734375 -9.5625 C 19.117188 -8.726562 17.289062 -8.238281 15.25 -8.09375 C 15.132812 -8.050781 14.96875 -8.03125 14.75 -8.03125 L 14.640625 -8.03125 C 14.460938 -8.03125 14.300781 -8.03125 14.15625 -8.03125 C 12.625 -8.03125 11.113281 -8.269531 9.625 -8.75 C 7.394531 -9.4375 5.625 -10.546875 4.3125 -12.078125 C 3 -13.609375 2.34375 -15.300781 2.34375 -17.15625 C 2.34375 -17.300781 2.414062 -17.375 2.5625 -17.375 L 3.875 -17.375 C 3.945312 -17.375 4.003906 -17.359375 4.046875 -17.328125 Z M 19.296875 -4.8125 C 21.992188 -3.789062 23.90625 -2.222656 25.03125 -0.109375 C 25.070312 -0.0351562 25.070312 0.0351562 25.03125 0.109375 C 25 0.179688 24.945312 0.21875 24.875 0.21875 L 24.21875 0.21875 C 24.101562 0.21875 24.03125 0.160156 24 0.046875 C 23.34375 -1.910156 21.71875 -3.382812 19.125 -4.375 L 19.015625 -4.421875 L 18.90625 -4.484375 C 18.800781 -4.515625 18.691406 -4.550781 18.578125 -4.59375 L 18.53125 -4.59375 C 17.101562 -5.0625 15.644531 -5.28125 14.15625 -5.25 C 14.039062 -5.25 13.859375 -5.25 13.609375 -5.25 C 13.390625 -5.25 13.207031 -5.25 13.0625 -5.25 C 11.09375 -4.988281 9.285156 -4.363281 7.640625 -3.375 C 6.003906 -2.394531 4.878906 -1.253906 4.265625 0.046875 C 4.222656 0.160156 4.148438 0.21875 4.046875 0.21875 L 3.5 0.21875 C 3.382812 0.21875 3.3125 0.179688 3.28125 0.109375 C 3.238281 0.0351562 3.238281 -0.0351562 3.28125 -0.109375 C 4.039062 -1.566406 5.3125 -2.804688 7.09375 -3.828125 C 8.882812 -4.847656 10.859375 -5.46875 13.015625 -5.6875 L 13.0625 -5.6875 C 13.175781 -5.6875 13.34375 -5.703125 13.5625 -5.734375 L 13.671875 -5.734375 C 13.878906 -5.734375 14.039062 -5.734375 14.15625 -5.734375 C 15.6875 -5.734375 17.195312 -5.5 18.6875 -5.03125 C 18.757812 -5.03125 18.820312 -5.007812 18.875 -4.96875 C 18.9375 -4.9375 19.003906 -4.921875 19.078125 -4.921875 C 19.148438 -4.878906 19.222656 -4.84375 19.296875 -4.8125 Z M 19.296875 -4.8125 "/></g></g><g style="fill:#000000;fill-opacity:1;"><g transform="translate(252.79374, 199.348712)"><path style="stroke:none" d="M 37.328125 -7.546875 C 37.367188 -7.617188 37.425781 -7.65625 37.5 -7.65625 C 37.53125 -7.65625 37.582031 -7.632812 37.65625 -7.59375 C 37.769531 -7.488281 37.789062 -7.378906 37.71875 -7.265625 C 35.851562 -4.785156 33.546875 -2.863281 30.796875 -1.5 C 28.046875 -0.132812 25.140625 0.546875 22.078125 0.546875 L 21.53125 0.546875 C 18.90625 0.472656 16.4375 -0.0703125 14.125 -1.09375 C 11.8125 -2.113281 9.78125 -3.515625 8.03125 -5.296875 C 6.28125 -7.085938 4.921875 -9.15625 3.953125 -11.5 C 2.992188 -13.851562 2.515625 -16.359375 2.515625 -19.015625 C 2.515625 -21.679688 2.992188 -24.175781 3.953125 -26.5 C 4.921875 -28.832031 6.28125 -30.890625 8.03125 -32.671875 C 9.78125 -34.460938 11.8125 -35.878906 14.125 -36.921875 C 16.4375 -37.960938 18.90625 -38.5 21.53125 -38.53125 L 22.078125 -38.53125 C 23.941406 -38.53125 25.742188 -38.273438 27.484375 -37.765625 L 27.59375 -37.765625 C 27.664062 -37.734375 27.796875 -37.679688 27.984375 -37.609375 L 28.140625 -37.609375 C 32.046875 -36.328125 35.238281 -34.03125 37.71875 -30.71875 C 37.789062 -30.601562 37.769531 -30.507812 37.65625 -30.4375 L 36.78125 -29.515625 L 11.15625 -3.875 C 14.175781 -1.363281 17.65625 -0.0546875 21.59375 0.046875 L 22.078125 0.046875 C 25.066406 0.0859375 27.910156 -0.5625 30.609375 -1.90625 C 33.304688 -3.257812 35.546875 -5.140625 37.328125 -7.546875 Z M 4.203125 -19.015625 C 4.171875 -16.171875 4.726562 -13.457031 5.875 -10.875 C 7.019531 -8.289062 8.648438 -6.050781 10.765625 -4.15625 L 36.34375 -29.734375 C 35.539062 -31.515625 34.410156 -33.050781 32.953125 -34.34375 C 31.492188 -35.644531 29.835938 -36.585938 27.984375 -37.171875 L 27.875 -37.171875 C 27.6875 -37.242188 27.554688 -37.28125 27.484375 -37.28125 L 27.375 -37.328125 C 25.632812 -37.835938 23.867188 -38.09375 22.078125 -38.09375 L 21.59375 -38.09375 C 19.144531 -38.019531 16.863281 -37.472656 14.75 -36.453125 C 12.644531 -35.429688 10.804688 -34.054688 9.234375 -32.328125 C 7.671875 -30.597656 6.441406 -28.59375 5.546875 -26.3125 C 4.648438 -24.039062 4.203125 -21.609375 4.203125 -19.015625 Z M 4.203125 -19.015625 "/></g></g></g></svg>